<svg width="42" height="43" viewBox="0 0 42 43" fill="none" xmlns="http://www.w3.org/2000/svg">
    <circle cx="20.8809" cy="21.6309" r="20.8809" fill="#FFE500"/>
    <path d="M26.7149 8.55078C28.0511 8.61221 28.9748 8.80857 29.8282 9.13987C30.6375 9.44243 31.3701 9.91961 31.974 10.5375C32.5918 11.1413 33.069 11.874 33.3716 12.6832C33.7029 13.5378 33.8992 14.4603 33.9607 15.7965C34.0363 17.453 34.0451 18.0366 34.0451 21.6304C34.0451 25.2241 34.0363 25.8077 33.9607 27.4642C33.8992 28.8004 33.7029 29.724 33.3716 30.5786C33.0689 31.3874 32.5917 32.1197 31.974 32.7232C31.3701 33.3411 30.6375 33.8183 29.8282 34.1208C28.9737 34.4521 28.0511 34.6485 26.7149 34.7099C25.0585 34.7856 24.476 34.7944 20.8811 34.7944C17.2862 34.7944 16.7026 34.7856 15.0472 34.7099C13.7111 34.6485 12.7874 34.4521 11.9328 34.1208C11.124 33.8182 10.3917 33.341 9.78818 32.7232C9.17034 32.1194 8.69317 31.3867 8.3906 30.5775C8.05931 29.7229 7.86294 28.8004 7.80151 27.4642C7.72582 25.8099 7.71704 25.2263 7.71704 21.6304C7.71704 18.0355 7.72582 17.4508 7.80151 15.7965C7.86294 14.4603 8.05931 13.5367 8.3906 12.6832C8.69317 11.874 9.17034 11.1413 9.78818 10.5375C10.3918 9.91974 11.124 9.44258 11.9328 9.13987C12.7885 8.80857 13.7111 8.61221 15.0472 8.55078C16.7015 8.47508 17.2851 8.46631 20.8811 8.46631C24.476 8.46631 25.0607 8.47508 26.7149 8.55078ZM20.8811 11.392C17.3268 11.392 16.7827 11.3997 15.18 11.4732C14.163 11.5193 13.5531 11.6487 12.9925 11.867C12.5623 12.023 12.1735 12.2756 11.856 12.6053C11.5256 12.9222 11.273 13.3111 11.1178 13.7418C10.9005 14.3013 10.77 14.9123 10.7239 15.9292C10.6504 17.5319 10.6427 18.0761 10.6427 21.6304C10.6427 25.1846 10.6504 25.7288 10.7239 27.3315C10.77 28.3484 10.8994 28.9583 11.1178 29.5178C11.3042 29.9961 11.5017 30.3 11.856 30.6554C12.2115 31.0108 12.5153 31.2083 12.9925 31.3937C13.552 31.6109 14.163 31.7414 15.18 31.7875C16.7838 31.861 17.3279 31.8687 20.8811 31.8687C24.4354 31.8687 24.9784 31.861 26.5822 31.7875C27.5991 31.7414 28.2091 31.612 28.7696 31.3937C29.1999 31.2377 29.5887 30.9851 29.9061 30.6554C30.2616 30.3 30.459 29.9961 30.6444 29.5189C30.8616 28.9594 30.9922 28.3484 31.0382 27.3315C31.1117 25.7277 31.1194 25.1835 31.1194 21.6304C31.1194 18.0772 31.1117 17.533 31.0382 15.9292C30.9922 14.9123 30.8627 14.3024 30.6444 13.7429C30.4893 13.3119 30.2366 12.9225 29.9061 12.6053C29.5889 12.2748 29.1996 12.0221 28.7685 11.867C28.2091 11.6498 27.598 11.5193 26.5811 11.4732C24.9784 11.3997 24.4343 11.392 20.88 11.392M20.88 28.4559C19.0697 28.4559 17.3336 27.7368 16.0536 26.4567C14.7735 25.1767 14.0544 23.4406 14.0544 21.6304C14.0544 19.8201 14.7735 18.084 16.0536 16.804C17.3336 15.5239 19.0697 14.8048 20.88 14.8048C22.6902 14.8048 24.4263 15.5239 25.7064 16.804C26.9864 18.084 27.7055 19.8201 27.7055 21.6304C27.7055 23.4406 26.9864 25.1767 25.7064 26.4567C24.4263 27.7368 22.6902 28.4559 20.88 28.4559ZM20.88 25.5313C21.9146 25.5313 22.9068 25.1203 23.6384 24.3887C24.3699 23.6572 24.7809 22.6649 24.7809 21.6304C24.7809 20.5958 24.3699 19.6035 23.6384 18.872C22.9068 18.1404 21.9146 17.7294 20.88 17.7294C19.8454 17.7294 18.8532 18.1404 18.1216 18.872C17.39 19.6035 16.979 20.5958 16.979 21.6304C16.979 22.6649 17.39 23.6572 18.1216 24.3887C18.8532 25.1203 19.8454 25.5313 20.88 25.5313ZM27.7055 16.2671C27.3176 16.2671 26.9455 16.113 26.6711 15.8386C26.3968 15.5643 26.2427 15.1922 26.2427 14.8042C26.2427 14.4163 26.3968 14.0442 26.6711 13.7699C26.9455 13.4955 27.3176 13.3414 27.7055 13.3414C28.0935 13.3414 28.4656 13.4955 28.7399 13.7699C29.0143 14.0442 29.1684 14.4163 29.1684 14.8042C29.1684 15.1922 29.0143 15.5643 28.7399 15.8386C28.4656 16.113 28.0935 16.2671 27.7055 16.2671Z" fill="#181A2D"/>
    </svg>
    