<svg width="185" height="53" viewBox="0 0 185 53" fill="none" xmlns="http://www.w3.org/2000/svg">
    <path d="M179.241 45.7617H173.56V36.695L167.8 18.5226H173.093L175.505 26.8111L176.322 31.5974H176.478L177.295 26.8111L179.708 18.5226H185L179.241 36.695V45.7617Z" fill="#FFFFFF"/>
    <path d="M156.71 45.7617V18.5226H162.041V41.2478H170.135V45.7617H156.71Z" fill="#FFFFFF"/>
    <path d="M140.255 45.7617V18.5226H154.459V23.1921H145.586V30.0019H153.291V34.5158H145.586V45.7617H140.255Z" fill="#FFFFFF"/>
    <path d="M120.162 23.1921V32.9204H123.625C125.052 31.753 125.765 30.0408 125.765 27.7839C125.765 26.824 125.571 25.9161 125.182 25.06C124.819 24.2039 124.378 23.5813 123.859 23.1921H120.162ZM114.909 45.7617V18.5226H125.454C127.218 19.3008 128.606 20.4942 129.618 22.1026C130.656 23.711 131.174 25.5918 131.174 27.745C131.174 29.8722 130.643 31.8438 129.579 33.6598C128.515 35.4757 126.946 36.7598 124.87 37.5122H120.162V45.7617H114.909Z" fill="#FFFFFF"/>
    <path d="M106.504 18.5226C108.32 20.0013 109.669 21.9858 110.551 24.4763C111.433 26.9667 111.874 29.535 111.874 32.1811C111.874 34.8012 111.446 37.2916 110.59 39.6524C109.734 42.0131 108.372 44.0495 106.504 45.7617H98.4877C96.6199 44.0495 95.2579 42.0131 94.4018 39.6524C93.5457 37.2916 93.1177 34.8012 93.1177 32.1811C93.1177 29.535 93.5587 26.9667 94.4407 24.4763C95.3227 21.9858 96.6717 20.0013 98.4877 18.5226H106.504ZM101.095 41.2478H103.897C104.545 40.4955 105.09 39.2762 105.531 37.59C105.998 35.8778 106.231 34.0748 106.231 32.1811C106.231 30.2873 106.011 28.5103 105.57 26.85C105.129 25.1637 104.584 23.9445 103.936 23.1921H101.095C100.446 23.9445 99.8885 25.1637 99.4216 26.85C98.9806 28.5103 98.7601 30.2873 98.7601 32.1811C98.7601 34.0748 98.9806 35.8778 99.4216 37.59C99.8885 39.2762 100.446 40.4955 101.095 41.2478Z" fill="#FFFFFF"/>
    <path d="M78.5147 45.7617H73.1836V18.5226H78.5147V29.4961H84.7408V18.5226H90.0719V45.7617H84.7408V34.4769H78.5147V45.7617Z" fill="#FFFFFF"/>
    <path d="M60.5877 18.5226H69.9268V23.1921H62.4555L62.3388 23.4256L68.5649 34.7882C69.836 37.0711 70.4716 38.8093 70.4716 40.0026C70.4716 42.6227 69.6026 44.5424 67.8644 45.7617H57.5525V41.2478H65.6075L65.7242 41.0143L58.7199 28.4454C57.7081 26.6295 57.2023 25.1508 57.2023 24.0093C57.2023 21.3114 58.3307 19.4824 60.5877 18.5226Z" fill="#FFFFFF"/>
    <path d="M22.3361 29.8852C19.045 29.8852 15.8888 28.5733 13.5616 26.2381C11.2345 23.9028 9.92715 20.7356 9.92715 17.433H14.8907C14.8907 19.4146 15.6751 21.3149 17.0714 22.7161C18.4677 24.1172 20.3615 24.9044 22.3361 24.9044C24.3107 24.9044 26.2045 24.1172 27.6008 22.7161C28.997 21.3149 29.7815 19.4146 29.7815 17.433H34.745C34.745 20.7356 33.4377 23.9028 31.1105 26.2381C28.7834 28.5733 25.6271 29.8852 22.3361 29.8852ZM22.3361 4.98087C24.3107 4.98087 26.2045 5.76802 27.6008 7.16917C28.997 8.57031 29.7815 10.4707 29.7815 12.4522H14.8907C14.8907 10.4707 15.6751 8.57031 17.0714 7.16917C18.4677 5.76802 20.3615 4.98087 22.3361 4.98087ZM39.7086 12.4522H34.745C34.745 10.8169 34.4241 9.1977 33.8005 7.68694C33.1769 6.17617 32.2628 4.80345 31.1105 3.64716C29.9583 2.49087 28.5903 1.57365 27.0848 0.947866C25.5793 0.322085 23.9657 0 22.3361 0C19.045 0 15.8888 1.31192 13.5616 3.64716C11.2345 5.98239 9.92715 9.14966 9.92715 12.4522H4.96358C2.20879 12.4522 0 14.6687 0 17.433V47.3183C0 48.6393 0.522946 49.9062 1.4538 50.8403C2.38465 51.7744 3.64715 52.2991 4.96358 52.2991H39.7086C41.025 52.2991 42.2875 51.7744 43.2184 50.8403C44.1492 49.9062 44.6722 48.6393 44.6722 47.3183V17.433C44.6722 16.112 44.1492 14.8451 43.2184 13.911C42.2875 12.9769 41.025 12.4522 39.7086 12.4522Z" fill="#FFFFFF"/>
    </svg>
    