<svg width="42" height="43" viewBox="0 0 42 43" fill="none" xmlns="http://www.w3.org/2000/svg">
    <path d="M21.0396 0.75C16.9097 0.75 12.8726 1.97464 9.43879 4.26906C6.00495 6.56349 3.32859 9.82463 1.74816 13.6401C0.167739 17.4556 -0.245773 21.654 0.559921 25.7045C1.36562 29.755 3.35433 33.4757 6.27457 36.3959C9.19482 39.3162 12.9154 41.3049 16.9659 42.1106C21.0164 42.9163 25.2149 42.5027 29.0304 40.9223C32.8458 39.3419 36.107 36.6655 38.4014 33.2317C40.6958 29.7978 41.9205 25.7607 41.9205 21.6309C41.9149 16.0946 39.7132 10.7867 35.7985 6.87198C31.8838 2.95725 26.5758 0.755528 21.0396 0.75ZM33.4408 16.8554V18.2043C33.4408 18.3076 33.4201 18.4098 33.38 18.5049C33.3399 18.6 33.2811 18.6861 33.2071 18.7582C33.1332 18.8302 33.0455 18.8866 32.9494 18.9242C32.8532 18.9618 32.7505 18.9797 32.6473 18.9769C30.4427 18.8207 28.3336 18.0157 26.5856 16.6633V26.5358C26.5853 27.6285 26.3673 28.7101 25.9442 29.7176C25.5212 30.725 24.9016 31.6381 24.1216 32.4033C23.3347 33.1877 22.3996 33.8077 21.3707 34.2271C20.3418 34.6465 19.2398 34.857 18.1288 34.8464C15.8944 34.8425 13.7499 33.9658 12.1527 32.4033C11.1366 31.3789 10.4047 30.1076 10.0291 28.7145C9.65344 27.3214 9.64697 25.8545 10.0103 24.4582C10.3423 23.1176 11.0126 21.8856 11.9585 20.8813C12.6639 20.0191 13.5531 19.3254 14.5611 18.8511C15.569 18.3767 16.6703 18.1336 17.7843 18.1396H19.4965V21.6956C19.4972 21.7989 19.476 21.9011 19.4341 21.9956C19.3922 22.09 19.3307 22.1744 19.2537 22.2431C19.1766 22.3119 19.0858 22.3634 18.9872 22.3943C18.8887 22.4252 18.7847 22.4347 18.6821 22.4223C17.688 22.1237 16.6167 22.2227 15.6942 22.6985C14.7716 23.1744 14.0698 23.9898 13.7368 24.973C13.4038 25.9561 13.4654 27.0302 13.9089 27.9688C14.3523 28.9073 15.1428 29.6371 16.1138 30.0041C16.6776 30.3278 17.3082 30.5178 17.9555 30.5616C18.4566 30.5825 18.9578 30.5199 19.4338 30.3695C20.229 30.1019 20.9206 29.5926 21.4122 28.9128C21.9037 28.2329 22.1706 27.4165 22.1755 26.5776V8.58869C22.1752 8.49007 22.1944 8.39236 22.232 8.30118C22.2695 8.20999 22.3247 8.1271 22.3943 8.05727C22.464 7.98744 22.5467 7.93204 22.6378 7.89423C22.7289 7.85643 22.8265 7.83697 22.9251 7.83697H25.8798C26.0719 7.8367 26.2568 7.91021 26.3963 8.04233C26.5358 8.17444 26.6192 8.35507 26.6294 8.54692C26.7375 9.46815 27.0302 10.3581 27.4902 11.1636C27.9501 11.9691 28.5678 12.6735 29.3063 13.2347C30.3046 13.9841 31.4903 14.4436 32.7329 14.5627C32.919 14.5786 33.093 14.6614 33.2228 14.7958C33.3526 14.9302 33.4292 15.107 33.4387 15.2935L33.4408 16.8554Z" fill="#FFE500"/>
    </svg>
    