<svg class="kebab-icon" width="45" height="53" viewBox="0 0 45 53" fill="none" stroke="currentColor" xmlns="http://www.w3.org/2000/svg">
    <path
        d="M22.3361 29.8852C19.045 29.8852 15.8888 28.5733 13.5616 26.2381C11.2345 23.9028 9.92715 20.7356 9.92715 17.433H14.8907C14.8907 19.4146 15.6751 21.3149 17.0714 22.7161C18.4677 24.1172 20.3615 24.9044 22.3361 24.9044C24.3107 24.9044 26.2045 24.1172 27.6008 22.7161C28.997 21.3149 29.7815 19.4146 29.7815 17.433H34.745C34.745 20.7356 33.4377 23.9028 31.1105 26.2381C28.7834 28.5733 25.6271 29.8852 22.3361 29.8852ZM22.3361 4.98087C24.3107 4.98087 26.2045 5.76802 27.6008 7.16917C28.997 8.57031 29.7815 10.4707 29.7815 12.4522H14.8907C14.8907 10.4707 15.6751 8.57031 17.0714 7.16917C18.4677 5.76802 20.3615 4.98087 22.3361 4.98087ZM39.7086 12.4522H34.745C34.745 10.8169 34.4241 9.1977 33.8005 7.68694C33.1769 6.17617 32.2628 4.80345 31.1105 3.64716C29.9583 2.49087 28.5903 1.57365 27.0848 0.947866C25.5793 0.322085 23.9657 0 22.3361 0C19.045 0 15.8888 1.31192 13.5616 3.64716C11.2345 5.98239 9.92715 9.14966 9.92715 12.4522H4.96358C2.20879 12.4522 0 14.6687 0 17.433V47.3183C0 48.6393 0.522946 49.9062 1.4538 50.8403C2.38465 51.7744 3.64715 52.2991 4.96358 52.2991H39.7086C41.025 52.2991 42.2875 51.7744 43.2184 50.8403C44.1492 49.9062 44.6722 48.6393 44.6722 47.3183V17.433C44.6722 16.112 44.1492 14.8451 43.2184 13.911C42.2875 12.9769 41.025 12.4522 39.7086 12.4522Z"
        fill="#FFE500" />
</svg>