<svg width="26" height="26" viewBox="0 0 26 26" fill="none" xmlns="http://www.w3.org/2000/svg">
    <path fill-rule="evenodd" clip-rule="evenodd" d="M0 13C0 5.8201 5.8201 0 13 0C20.1799 0 26 5.8201 26 13C26 20.1799 20.1799 26 13 26C5.8201 26 0 20.1799 0 13ZM11.05 7.15C11.05 6.63283 11.2554 6.13684 11.6211 5.77114C11.9868 5.40545 12.4828 5.2 13 5.2H13.013C13.5302 5.2 14.0262 5.40545 14.3919 5.77114C14.7576 6.13684 14.963 6.63283 14.963 7.15V7.163C14.963 7.68017 14.7576 8.17616 14.3919 8.54186C14.0262 8.90755 13.5302 9.113 13.013 9.113H13C12.4828 9.113 11.9868 8.90755 11.6211 8.54186C11.2554 8.17616 11.05 7.68017 11.05 7.163V7.15ZM13 11.05C12.4828 11.05 11.9868 11.2554 11.6211 11.6211C11.2554 11.9868 11.05 12.4828 11.05 13V13.013C11.05 13.5302 11.2554 14.0262 11.6211 14.3919C11.9868 14.7576 12.4828 14.963 13 14.963H13.013C13.5302 14.963 14.0262 14.7576 14.3919 14.3919C14.7576 14.0262 14.963 13.5302 14.963 13.013V13C14.963 12.4828 14.7576 11.9868 14.3919 11.6211C14.0262 11.2554 13.5302 11.05 13.013 11.05H13ZM13 16.9C12.4828 16.9 11.9868 17.1054 11.6211 17.4711C11.2554 17.8368 11.05 18.3328 11.05 18.85V18.863C11.05 19.3802 11.2554 19.8762 11.6211 20.2419C11.9868 20.6076 12.4828 20.813 13 20.813H13.013C13.5302 20.813 14.0262 20.6076 14.3919 20.2419C14.7576 19.8762 14.963 19.3802 14.963 18.863V18.85C14.963 18.3328 14.7576 17.8368 14.3919 17.4711C14.0262 17.1054 13.5302 16.9 13.013 16.9H13Z" fill="#181A2D"/>
    </svg>
    