<svg width="42" height="43" viewBox="0 0 42 43" fill="none" xmlns="http://www.w3.org/2000/svg">
    <circle cx="21.1192" cy="21.6309" r="20.8809" fill="#FFE500"/>
    <path d="M6.06216 30.3136C4.95405 25.0887 4.95405 19.6895 6.06216 14.4646C6.20764 13.934 6.48872 13.4504 6.87776 13.0614C7.26681 12.6723 7.75042 12.3912 8.28102 12.2458C16.7817 10.8387 25.4558 10.8387 33.9564 12.2458C34.487 12.3912 34.9706 12.6723 35.3597 13.0614C35.7487 13.4504 36.0298 13.934 36.1753 14.4646C37.2834 19.6895 37.2834 25.0887 36.1753 30.3136C36.0298 30.8442 35.7487 31.3278 35.3597 31.7169C34.9706 32.1059 34.487 32.387 33.9564 32.5325C25.4558 33.9396 16.7817 33.9396 8.28102 32.5325C7.75042 32.387 7.26681 32.1059 6.87776 31.7169C6.48872 31.3278 6.20764 30.8442 6.06216 30.3136Z" stroke="#181A2D" stroke-width="1.89139" stroke-linecap="round" stroke-linejoin="round"/>
    <path d="M17.9492 27.1434L25.8737 22.3887L17.9492 17.634V27.1434Z" stroke="#181A2D" stroke-width="1.89139" stroke-linecap="round" stroke-linejoin="round"/>
    </svg>
    